<?xml version="1.0" encoding="utf-8"?>
<!-- Generator: Adobe Illustrator 23.0.0, SVG Export Plug-In . SVG Version: 6.00 Build 0)  -->
<svg version="1.1" id="Layer_1" xmlns="http://www.w3.org/2000/svg" xmlns:xlink="http://www.w3.org/1999/xlink" x="0px" y="0px"
	 viewBox="0 0 270 34" style="enable-background:new 0 0 270 34;" xml:space="preserve">
<style type="text/css">
	.st0{fill:#FCFAFA;}
	.st1{fill:#F13024;}
</style>
<g>
	<g>
		<g>
			<g>
				<path class="st0" d="M68.2,1.8v20.3c0,2,0.1,4.1,0.1,5.3h-4.9l-0.2-2.6h-0.1c-1.1,2-3.2,3-5.5,3c-4.2,0-7.5-3.6-7.5-9
					c0-5.9,3.7-9.4,7.9-9.4c2.2,0,3.8,0.8,4.6,2h0.1V1.8H68.2z M62.8,17.2c0-0.3,0-0.7-0.1-1c-0.3-1.5-1.5-2.7-3.2-2.7
					c-2.5,0-3.8,2.2-3.8,5c0,3,1.5,4.8,3.7,4.8c1.6,0,2.8-1.1,3.2-2.6c0.1-0.4,0.1-0.8,0.1-1.2V17.2z"/>
				<path class="st0" d="M76.7,9.8l2.6,8.7c0.3,1,0.6,2.3,0.9,3.3h0.1c0.2-1,0.5-2.3,0.8-3.3l2.2-8.7h5.8l-4.1,11.6
					c-2.5,7-4.2,9.8-6.2,11.6c-1.9,1.7-3.9,2.3-5.3,2.4l-1.2-4.6c0.7-0.1,1.5-0.5,2.4-0.9c0.8-0.4,1.7-1.3,2.3-2.2
					c0.2-0.3,0.3-0.6,0.3-0.8c0-0.2,0-0.5-0.2-0.9L70.7,9.8H76.7z"/>
				<path class="st0" d="M90.1,24.2l5.6-6.9c1-1.2,1.8-2.1,2.8-3.1v-0.1h-7.7V9.8h14.4l0,3.3l-5.3,6.7c-1,1.1-1.9,2.2-2.9,3.2V23
					h8.5v4.3H90.1V24.2z"/>
				<path class="st0" d="M118.4,27.4l-0.3-1.8h-0.1c-1.1,1.4-2.9,2.1-5,2.1c-3.6,0-5.7-2.6-5.7-5.4c0-4.6,4.1-6.8,10.3-6.8v-0.2
					c0-0.9-0.5-2.3-3.2-2.3c-1.8,0-3.7,0.6-4.9,1.3l-1-3.5c1.2-0.7,3.6-1.6,6.8-1.6c5.9,0,7.7,3.5,7.7,7.6v6.1
					c0,1.7,0.1,3.3,0.3,4.3H118.4z M117.7,19c-2.9,0-5.1,0.7-5.1,2.8c0,1.4,0.9,2.1,2.2,2.1c1.3,0,2.5-0.9,2.8-2
					c0.1-0.3,0.1-0.6,0.1-0.9V19z"/>
				<path class="st0" d="M133,4.9c0,1.5-1.1,2.7-2.9,2.7c-1.7,0-2.9-1.2-2.9-2.7c0-1.6,1.1-2.7,2.9-2.7C131.9,2.1,133,3.3,133,4.9z
					 M127.4,27.4V9.8h5.5v17.6H127.4z"/>
				<path class="st0" d="M137.2,15.4c0-2.2-0.1-4-0.1-5.6h4.8l0.3,2.4h0.1c0.7-1.1,2.5-2.8,5.4-2.8c3.6,0,6.3,2.4,6.3,7.6v10.4h-5.5
					v-9.8c0-2.3-0.8-3.8-2.8-3.8c-1.5,0-2.4,1.1-2.8,2.1c-0.1,0.3-0.2,0.9-0.2,1.4v10.2h-5.5V15.4z"/>
			</g>
		</g>
		<g>
			<g>
				<path class="st0" d="M167.6,18.4L167.6,18.4c0.5-0.5,1.2-1.3,1.7-1.9l6.1-6.4h2.1l-7,7.2l7.9,10.1h-2.1l-7.1-9.1l-1.8,1.9v7.2
					h-1.7V1.8h1.7V18.4z"/>
				<path class="st0" d="M190.5,27.4l-0.3-2.5h-0.1c-0.8,1.3-2.8,2.9-5.5,2.9c-3.5,0-5.1-2.4-5.1-4.8c0-4,3.5-6.4,10.5-6.3v-0.5
					c0-1.7-0.3-5.1-4.4-5.1c-1.5,0-3.1,0.4-4.3,1.3l-0.5-1.2c1.6-1.1,3.5-1.5,5.1-1.5c5,0,5.9,3.7,5.9,6.8v6.7
					c0,1.4,0.1,2.8,0.3,4.1H190.5z M190.2,18.1c-3.8-0.1-8.7,0.5-8.7,4.6c0,2.5,1.6,3.6,3.4,3.6c2.9,0,4.5-1.8,5.1-3.5
					c0.1-0.4,0.2-0.7,0.2-1V18.1z"/>
				<path class="st0" d="M197.5,1.8h1.7v25.6h-1.7V1.8z"/>
				<path class="st0" d="M207.3,5.2c0,0.8-0.5,1.5-1.4,1.5c-0.8,0-1.3-0.7-1.3-1.5c0-0.8,0.6-1.5,1.4-1.5
					C206.8,3.7,207.3,4.3,207.3,5.2z M205.1,27.4V10.1h1.7v17.3H205.1z"/>
			</g>
		</g>
	</g>
	<path class="st1" d="M211.6,27v-4.4h4.1V27H211.6z"/>
</g>
</svg>
